# xmcd
#
# Track frame offsets: 
#        180
#        25404
#        51072
#        62961
#        74401
#        97730
#        131695
#        144457
#        155345
#        170570
#
# Disc length: 2455 seconds
#
# Revision: 0
# Processed by: cddbd v1.5.2PL0 Copyright (c) Steve Scherf et al.
# Submitted via: ExactAudioCopyFreeDBPlugin 1.0
#
DISCID=8a09950a
DTITLE=Sweet Claudette - Linament and Collard Greens
DYEAR=1997
DGENRE=Blues
TTITLE0=Drivin' Wheel
TTITLE1=Linament and Collard Greens
TTITLE2=27 Lonely Women
TTITLE3=What I'm Looking For....
TTITLE4=Medley:
TTITLE5=Movin On
TTITLE6=CeCe Rider
TTITLE7=Dog Food Blues
TTITLE8=Sheet Pressures Union Card
TTITLE9=Killin' Floor
EXTD=
EXTT0=
EXTT1=
EXTT2=
EXTT3=
EXTT4=
EXTT5=
EXTT6=
EXTT7=
EXTT8=
EXTT9=
PLAYORDER=
